<?xml version="1.0" encoding="UTF-8" standalone="no"?>
<svg
   version="1.0"
   width="305.5686"
   height="296.2204"
   viewBox="0 0 3055.6883 2962.2063"
   preserveAspectRatio="xMidYMid meet"
   id="svg8"
   sodipodi:docname="fortranLogo.svg"
   inkscape:version="1.1 (c68e22c387, 2021-05-23)"
   xmlns:inkscape="http://www.inkscape.org/namespaces/inkscape"
   xmlns:sodipodi="http://sodipodi.sourceforge.net/DTD/sodipodi-0.dtd"
   xmlns="http://www.w3.org/2000/svg"
   xmlns:svg="http://www.w3.org/2000/svg">
  <defs
     id="defs6674" />
  <sodipodi:namedview
     id="namedview6672"
     pagecolor="#ffffff"
     bordercolor="#666666"
     borderopacity="1.0"
     inkscape:pageshadow="2"
     inkscape:pageopacity="0.0"
     inkscape:pagecheckerboard="0"
     showgrid="false"
     fit-margin-top="0"
     fit-margin-left="0"
     fit-margin-right="0"
     fit-margin-bottom="0"
     inkscape:zoom="3.4231267"
     inkscape:cx="111.88601"
     inkscape:cy="129.12172"
     inkscape:window-width="3840"
     inkscape:window-height="2066"
     inkscape:window-x="-11"
     inkscape:window-y="-11"
     inkscape:window-maximized="1"
     inkscape:current-layer="svg8" />
  <g
     id="g6968"
     transform="translate(20.000015,80.00006)">
    <g
       id="layer101"
       style="fill:#734f96;stroke:none"
       transform="translate(277.66626,9.6268497)">
      <path
         d="M 374,2558.203 C 223.231,2558.253 -0.142,2295.04 -0.142,2181.664 v -1802 C -0.142,227.08 263.836,7.893 377.76,7.901 l 1805.356,0.127 c 155.783,0.01 367.163,254.122 367.163,375.222 v 1803.768 c 0,177.696 -238.056,370.532 -372.282,370.577 z"
         id="path2" />
    </g>
    <g
       id="layer102"
       style="fill:#ffffff;stroke:none"
       transform="translate(277.66626,9.6268497)">
      <path
         d="m 350,2062 98,-6 c 199,-13 197,-12 207,-168 9,-148 -2.337,-1306.766 -9,-1330 -10.975,-38.27 -52.156,-60.281 -175,-60.25 L 350,497 V 280 h 1860 v 831 l -219,-3.25 c -2,-2 -8,-60.75 -12,-114.75 -23,-254 -80,-400.142 -190,-457.142 -58,-30 -148.565,-38.842 -438.652,-38.93 L 1080,497 v 623 h 48 c 81,-1 184,-20 218,-41 44,-27 81,-105 94,-199 9.8,-68.603 17.362,-119.933 17.362,-119.933 L 1670,760 v 990 h -220 v -39 c 0,-64 -30,-213 -51,-258 -33,-69 -89,-93 -248,-108 l -73,-7 4,321 c 3,305 5,322 24,348 24,32 50,38 209,50 l 106.727,5.077 L 1421,2280 H 350 Z"
         id="path5" />
    </g>
  </g>
</svg>
