<?xml version="1.0" encoding="UTF-8" standalone="no"?>
<svg
   width="270.07559"
   height="275.94043"
   viewBox="0 0 270.0756 275.94043"
   version="1.1"
   preserveAspectRatio="xMidYMid"
   id="svg5742"
   sodipodi:docname="gitLogo.svg"
   inkscape:version="1.1 (c68e22c387, 2021-05-23)"
   xmlns:inkscape="http://www.inkscape.org/namespaces/inkscape"
   xmlns:sodipodi="http://sodipodi.sourceforge.net/DTD/sodipodi-0.dtd"
   xmlns="http://www.w3.org/2000/svg"
   xmlns:svg="http://www.w3.org/2000/svg">
  <defs
     id="defs5746" />
  <sodipodi:namedview
     id="namedview5744"
     pagecolor="#ffffff"
     bordercolor="#666666"
     borderopacity="1.0"
     inkscape:pageshadow="2"
     inkscape:pageopacity="0.0"
     inkscape:pagecheckerboard="0"
     showgrid="false"
     fit-margin-top="0"
     fit-margin-left="0"
     fit-margin-right="0"
     fit-margin-bottom="0"
     inkscape:zoom="3.4101562"
     inkscape:cx="89.145475"
     inkscape:cy="135.7709"
     inkscape:window-width="3840"
     inkscape:window-height="2066"
     inkscape:window-x="-11"
     inkscape:window-y="-11"
     inkscape:window-maximized="1"
     inkscape:current-layer="svg5742" />
  <g
     id="g5740"
     transform="translate(4.6918679,7.9175263)">
    <path
       d="M 251.17224,116.59352 139.39875,4.828453 c -6.43232,-6.4379373 -16.8729,-6.4379373 -23.31364,0 L 92.875386,28.038172 122.31799,57.480781 c 6.84242,-2.311703 14.6876,-0.761205 20.14243,4.693627 5.48012,5.488538 7.01938,13.401134 4.6515,20.26602 l 28.37524,28.375232 c 6.86488,-2.36507 14.7859,-0.83423 20.26882,4.65712 7.66261,7.65979 7.66261,20.07501 0,27.74043 -7.66541,7.66541 -20.08063,7.66541 -27.74885,0 -5.76381,-5.76943 -7.18791,-14.23537 -4.26949,-21.3362 l -26.4624,-26.462396 -0.003,69.637586 c 1.8679,0.92693 3.63187,2.16002 5.18798,3.71052 7.66261,7.6598 7.66261,20.07502 0,27.74605 -7.66541,7.6626 -20.08625,7.6626 -27.74043,0 -7.6626,-7.67103 -7.6626,-20.08625 0,-27.74605 1.89318,-1.89037 4.08411,-3.32009 6.42109,-4.28072 V 94.195562 c -2.33698,-0.955016 -4.5251,-2.376306 -6.42109,-4.280722 -5.80594,-5.797515 -7.20195,-14.316827 -4.22735,-21.445747 L 81.471361,39.442197 4.8312561,116.07668 c -6.4407462,6.44356 -6.4407462,16.88414 0,23.32208 L 116.60475,251.16663 c 6.43513,6.43794 16.8729,6.43794 23.31645,0 L 251.17224,139.9184 c 6.43794,-6.44075 6.43794,-16.88695 0,-23.32488"
       fill="#de4c36"
       id="path5738" />
  </g>
</svg>
