<?xml version="1.0" encoding="UTF-8" standalone="no"?>
<!-- Created with Inkscape (http://www.inkscape.org/) -->

<svg
   width="157.82643mm"
   height="178.58952mm"
   viewBox="0 0 157.82643 178.58952"
   version="1.1"
   id="svg5"
   inkscape:version="1.1 (c68e22c387, 2021-05-23)"
   sodipodi:docname="leaderLogo.svg"
   xmlns:inkscape="http://www.inkscape.org/namespaces/inkscape"
   xmlns:sodipodi="http://sodipodi.sourceforge.net/DTD/sodipodi-0.dtd"
   xmlns="http://www.w3.org/2000/svg"
   xmlns:svg="http://www.w3.org/2000/svg">
  <sodipodi:namedview
     id="namedview7"
     pagecolor="#ffffff"
     bordercolor="#666666"
     borderopacity="1.0"
     inkscape:pageshadow="2"
     inkscape:pageopacity="0.0"
     inkscape:pagecheckerboard="0"
     inkscape:document-units="mm"
     showgrid="false"
     fit-margin-top="0"
     fit-margin-left="0"
     fit-margin-right="0"
     fit-margin-bottom="0"
     inkscape:zoom="0.58974467"
     inkscape:cx="306.06466"
     inkscape:cy="478.17304"
     inkscape:window-width="1368"
     inkscape:window-height="890"
     inkscape:window-x="-6"
     inkscape:window-y="-6"
     inkscape:window-maximized="1"
     inkscape:current-layer="layer1" />
  <defs
     id="defs2">
    <clipPath
       clipPathUnits="userSpaceOnUse"
       id="clipPath20">
      <path
         d="m 6680.96,5543.75 c 0,0 -818.63,-1594 -3671.89,-793.05 0,0 1126.85,-666.39 1053.18,-1208.94 -104.37,-768.53 -1299.16,-2072.95 -1299.16,-2072.95 0,0 3604.76,2718.14 3917.87,4074.94 z"
         id="path18" />
    </clipPath>
    <linearGradient
       x1="0"
       y1="0"
       x2="1"
       y2="0"
       gradientUnits="userSpaceOnUse"
       gradientTransform="matrix(-4380.44,-3300.33,-3300.33,4380.44,7377.48,6493.69)"
       spreadMethod="pad"
       id="linearGradient26">
      <stop
         style="stop-opacity:1;stop-color:#50aae3"
         offset="0"
         id="stop22" />
      <stop
         style="stop-opacity:1;stop-color:#2d3c92"
         offset="1"
         id="stop24" />
    </linearGradient>
    <clipPath
       clipPathUnits="userSpaceOnUse"
       id="clipPath36">
      <path
         d="m 5427.97,5124.86 c 0,-231.34 -187.54,-418.88 -418.88,-418.88 -231.35,0 -418.89,187.54 -418.89,418.88 0,231.35 187.54,418.89 418.89,418.89 231.34,0 418.88,-187.54 418.88,-418.89 z"
         id="path34" />
    </clipPath>
    <linearGradient
       x1="0"
       y1="0"
       x2="1"
       y2="0"
       gradientUnits="userSpaceOnUse"
       gradientTransform="matrix(-4380.44,-3300.33,-3300.33,4380.44,7177.74,6758.78)"
       spreadMethod="pad"
       id="linearGradient42">
      <stop
         style="stop-opacity:1;stop-color:#50aae3"
         offset="0"
         id="stop38" />
      <stop
         style="stop-opacity:1;stop-color:#2d3c92"
         offset="1"
         id="stop40" />
    </linearGradient>
    <clipPath
       clipPathUnits="userSpaceOnUse"
       id="clipPath52">
      <path
         d="m 6680.96,6531.19 131.24,-403.92 h 424.71 l -343.6,-249.64 131.25,-403.92 -343.6,249.63 -343.6,-249.63 131.25,403.92 -343.6,249.64 h 424.71 z"
         id="path50" />
    </clipPath>
    <linearGradient
       x1="0"
       y1="0"
       x2="1"
       y2="0"
       gradientUnits="userSpaceOnUse"
       gradientTransform="matrix(-4542.25,-5015.71,-5015.71,4542.25,7928.96,7295.82)"
       spreadMethod="pad"
       id="linearGradient58">
      <stop
         style="stop-opacity:1;stop-color:#f09c13"
         offset="0"
         id="stop54" />
      <stop
         style="stop-opacity:1;stop-color:#f04328"
         offset="1"
         id="stop56" />
    </linearGradient>
  </defs>
  <g
     inkscape:label="Layer 1"
     inkscape:groupmode="layer"
     id="layer1"
     transform="translate(-24.274092,13.923164)">
    <g
       id="g12"
       transform="matrix(0.03527778,0,0,-0.03527778,-73.201589,216.48272)">
      <g
         id="g14">
        <g
           id="g16"
           clip-path="url(#clipPath20)">
          <path
             d="m 6680.96,5543.75 c 0,0 -818.63,-1594 -3671.89,-793.05 0,0 1126.85,-666.39 1053.18,-1208.94 -104.37,-768.53 -1299.16,-2072.95 -1299.16,-2072.95 0,0 3604.76,2718.14 3917.87,4074.94"
             style="fill:url(#linearGradient26);fill-opacity:1;fill-rule:nonzero;stroke:none"
             id="path28" />
        </g>
      </g>
      <g
         id="g30">
        <g
           id="g32"
           clip-path="url(#clipPath36)">
          <path
             d="m 5427.97,5124.86 c 0,-231.34 -187.54,-418.88 -418.88,-418.88 -231.35,0 -418.89,187.54 -418.89,418.88 0,231.35 187.54,418.89 418.89,418.89 231.34,0 418.88,-187.54 418.88,-418.89"
             style="fill:url(#linearGradient42);fill-opacity:1;fill-rule:nonzero;stroke:none"
             id="path44" />
        </g>
      </g>
      <g
         id="g46">
        <g
           id="g48"
           clip-path="url(#clipPath52)">
          <path
             d="m 6680.96,6531.19 131.24,-403.92 h 424.71 l -343.6,-249.64 131.25,-403.92 -343.6,249.63 -343.6,-249.63 131.25,403.92 -343.6,249.64 h 424.71 l 131.24,403.92"
             style="fill:url(#linearGradient58);fill-opacity:1;fill-rule:nonzero;stroke:none"
             id="path60" />
        </g>
      </g>
    </g>
  </g>
</svg>
