<?xml version="1.0" encoding="UTF-8" standalone="no"?>
<svg
   width="114.32677"
   height="89.226326"
   viewBox="0 0 22.499511 17.561787"
   version="1.1"
   id="svg3626"
   sodipodi:docname="microsoft-azureicon-seeklogo.com.svg"
   inkscape:version="1.1 (c68e22c387, 2021-05-23)"
   xmlns:inkscape="http://www.inkscape.org/namespaces/inkscape"
   xmlns:sodipodi="http://sodipodi.sourceforge.net/DTD/sodipodi-0.dtd"
   xmlns="http://www.w3.org/2000/svg"
   xmlns:svg="http://www.w3.org/2000/svg">
  <defs
     id="defs3630" />
  <sodipodi:namedview
     id="namedview3628"
     pagecolor="#ffffff"
     bordercolor="#666666"
     borderopacity="1.0"
     inkscape:pageshadow="2"
     inkscape:pageopacity="0.0"
     inkscape:pagecheckerboard="0"
     showgrid="false"
     fit-margin-top="0"
     fit-margin-left="0"
     fit-margin-right="0"
     fit-margin-bottom="0"
     inkscape:zoom="11.2747"
     inkscape:cx="49.757423"
     inkscape:cy="48.781787"
     inkscape:window-width="3840"
     inkscape:window-height="2066"
     inkscape:window-x="-11"
     inkscape:window-y="-11"
     inkscape:window-maximized="1"
     inkscape:current-layer="svg3626" />
  <path
     d="m 11.229656,16.38744 4.828044,-0.852864 0.04472,-0.0104 -2.482668,-2.953823 A 420.1345,420.1345 0 0 1 11.137089,9.6030075 c 0,-0.014561 2.563793,-7.0746138 2.578354,-7.0995757 0.0042,-0.00832 1.749412,3.0037467 4.22896,7.3013505 l 4.253921,7.3741577 0.03224,0.05616 -7.891075,-10e-4 -7.8910761,-0.001 4.7812411,-0.844544 z M 1.7597411,15.488812 c 0,-0.0042 1.1700883,-2.035433 2.6001962,-4.513941 L 6.9601336,6.468211 9.9898823,3.9252191 C 11.656088,2.5273536 13.023791,1.3811871 13.030032,1.379107 a 0.53252019,0.53252019 0 0 1 -0.04888,0.1227292 l -3.2908083,7.0569325 -3.231524,6.9300433 -2.3495373,0.0031 c -1.2917775,0.0021 -2.3495373,0 -2.3495373,-0.0042 z"
     fill="#0089d6"
     id="path3624"
     style="stroke-width:1.04008" />
</svg>
