<?xml version="1.0" encoding="UTF-8" standalone="no"?>
<svg
   width="270.189"
   height="263.17868"
   viewBox="0 0 270.189 263.17868"
   version="1.1"
   preserveAspectRatio="xMidYMid"
   id="svg4673"
   sodipodi:docname="pythonLogo.svg"
   inkscape:version="1.1 (c68e22c387, 2021-05-23)"
   xmlns:inkscape="http://www.inkscape.org/namespaces/inkscape"
   xmlns:sodipodi="http://sodipodi.sourceforge.net/DTD/sodipodi-0.dtd"
   xmlns="http://www.w3.org/2000/svg"
   xmlns:svg="http://www.w3.org/2000/svg">
  <sodipodi:namedview
     id="namedview4675"
     pagecolor="#ffffff"
     bordercolor="#666666"
     borderopacity="1.0"
     inkscape:pageshadow="2"
     inkscape:pageopacity="0.0"
     inkscape:pagecheckerboard="0"
     showgrid="false"
     fit-margin-top="0"
     fit-margin-left="0"
     fit-margin-right="0"
     fit-margin-bottom="0"
     inkscape:zoom="3.4235294"
     inkscape:cx="89.381443"
     inkscape:cy="128.37629"
     inkscape:window-width="3840"
     inkscape:window-height="2066"
     inkscape:window-x="-11"
     inkscape:window-y="-11"
     inkscape:window-maximized="1"
     inkscape:current-layer="svg4673" />
  <defs
     id="defs4665">
    <linearGradient
       x1="24.714942"
       y1="22.898217"
       x2="151.13554"
       y2="148.33669"
       id="linearGradient-1"
       gradientTransform="scale(0.99888681,1.0011144)"
       gradientUnits="userSpaceOnUse">
      <stop
         stop-color="#387EB8"
         offset="0%"
         id="stop4655" />
      <stop
         stop-color="#366994"
         offset="100%"
         id="stop4657" />
    </linearGradient>
    <linearGradient
       x1="102.48342"
       y1="103.26588"
       x2="238.25963"
       y2="231.90547"
       id="linearGradient-2"
       gradientTransform="scale(0.99888678,1.0011145)"
       gradientUnits="userSpaceOnUse">
      <stop
         stop-color="#FFE052"
         offset="0%"
         id="stop4660" />
      <stop
         stop-color="#FFC331"
         offset="100%"
         id="stop4662" />
    </linearGradient>
  </defs>
  <g
     id="g4671"
     transform="translate(4.6735401,2.3367703)">
    <path
       d="M 126.91587,0.07227555 C 62.083583,0.07228017 66.132129,28.187465 66.132129,28.187465 l 0.07227,29.127047 h 61.867881 v 8.745341 H 41.630717 c 0,0 -41.4861659,-4.704909 -41.4861659,60.711467 -4.63e-6,65.41635 36.2100509,63.09655 36.2100509,63.09655 h 21.610389 v -30.35573 c 0,0 -1.164855,-36.21005 35.631847,-36.21005 h 61.361942 c 0,0 34.47544,0.5573 34.47544,-33.31903 V 33.969509 c 0,-5e-6 5.23432,-33.89723345 -62.51835,-33.89723345 z M 92.801807,19.65895 c 6.1554,-5e-6 11.130433,4.975035 11.130433,11.130434 1e-5,6.1554 -4.975033,11.130435 -11.130433,11.130435 -6.1554,5e-6 -11.130435,-4.975035 -11.130435,-11.130435 -5e-6,-6.155399 4.975035,-11.130434 11.130435,-11.130434 z"
       fill="url(#linearGradient-1)"
       id="path4667"
       style="fill:url(#linearGradient-1)" />
    <path
       d="m 128.7571,254.12627 c 64.8323,0 60.78374,-28.11519 60.78374,-28.11519 l -0.0723,-29.12705 h -61.86787 v -8.74534 h 86.44156 c 0,0 41.48617,4.7049 41.48617,-60.71148 2e-5,-65.416353 -36.21005,-63.096551 -36.21005,-63.096551 h -21.61039 v 30.355724 c 0,0 1.16487,36.210047 -35.63185,36.210047 h -61.36195 c 0,0 -34.475435,-0.55729 -34.475435,33.31906 v 56.01355 c 0,0 -5.234323,33.89723 62.518355,33.89723 v 0 z m 34.11406,-19.58667 c -6.1554,0 -11.13043,-4.97504 -11.13043,-11.13044 0,-6.1554 4.97503,-11.13043 11.13043,-11.13043 6.1554,0 11.13043,4.97503 11.13043,11.13043 3e-5,6.1554 -4.97503,11.13044 -11.13043,11.13044 z"
       fill="url(#linearGradient-2)"
       id="path4669"
       style="fill:url(#linearGradient-2)" />
  </g>
</svg>
