<?xml version="1.0" encoding="UTF-8" standalone="no"?>
<svg
   width="470.74155"
   height="383.08823"
   viewBox="0 0 470.74154 383.08822"
   version="1.1"
   id="svg5116"
   sodipodi:docname="sparkLogo.svg"
   inkscape:version="1.1 (c68e22c387, 2021-05-23)"
   xmlns:inkscape="http://www.inkscape.org/namespaces/inkscape"
   xmlns:sodipodi="http://sodipodi.sourceforge.net/DTD/sodipodi-0.dtd"
   xmlns="http://www.w3.org/2000/svg"
   xmlns:svg="http://www.w3.org/2000/svg"
   xmlns:rdf="http://www.w3.org/1999/02/22-rdf-syntax-ns#"
   xmlns:x="adobe:ns:meta/">
  <sodipodi:namedview
     id="namedview5118"
     pagecolor="#ffffff"
     bordercolor="#666666"
     borderopacity="1.0"
     inkscape:pageshadow="2"
     inkscape:pageopacity="0.0"
     inkscape:pagecheckerboard="0"
     showgrid="false"
     fit-margin-top="0"
     fit-margin-left="0"
     fit-margin-right="0"
     fit-margin-bottom="0"
     inkscape:zoom="3.4796163"
     inkscape:cx="192.54997"
     inkscape:cy="150.8787"
     inkscape:window-width="3840"
     inkscape:window-height="2066"
     inkscape:window-x="-11"
     inkscape:window-y="-11"
     inkscape:window-maximized="1"
     inkscape:current-layer="svg5116" />
  <metadata
     id="metadata5108">
<?xpacket begin="﻿" id="W5M0MpCehiHzreSzNTczkc9d"?>    <x:xmpmeta
       x:xmptk="Adobe XMP Core 5.6-c138 79.159824, 2016/09/14-01:09:01        ">
      <rdf:RDF>
        <rdf:Description
           rdf:about="" />
      </rdf:RDF>
    </x:xmpmeta>
<?xpacket end="w"?>  </metadata>
  <defs
     id="defs5112">
    <style
       id="style5110">
      .cls-1 {
        fill-rule: evenodd;
      }
    </style>
  </defs>
  <path
     class="cls-1"
     d="m 409.28008,239.33001 c -8.559,-2.288 -18.46,-4.945 -27.878,-7.463 1.086,6.291 2.109,11.78 3.057,17.27 9.591,2.856 17.8,5.831 27.2,8.511 5.405,1.54 11.8,0.679 15.411,-3.619 3.645,-4.339 3.013,-10.006 0.68,-14.7 -3.621,-7.284 -15.255,-29.1 -17.338,-33.018 9.12,-10.689 25.724,-30.3 31.051,-36.636 5.327,-6.336 1.246,-17.866 -12.693,-13.8 -10.131,2.959 -37.474,10.166 -40.995,11 -2.229,-3.627 -14.373,-24.85 -18.839,-31.463 -5.95,-8.81 -17.9,-7.576 -21.872,5.653 -1.02,3.392 -5.136,28.6 -7.139,39.689 -2.271,0.784 -28.4,8.567 -39.55,12.325 -4.727,1.594 -9.323,5.458 -10.2,10.856 -0.889,5.478 2.94,9.986 7.253,12.325 9.292,4.3 17.977,8.24 26.857,12.438 6.247,-4.059 12.658,-7.993 19.152,-12.212 -10.006,-3.993 -30.066,-11.755 -30.031,-12.325 12.648,-4.072 27.123,-8.817 39.777,-12.891 2.4,-13.036 6.473,-38.929 7.026,-39.01 6.214,10.166 13.251,21.564 19.491,31.773 l 39.55,-10.289 c -8.677,10.286 -17.8,21.955 -26.639,32.432 z m -295.72,77.975 c -1.3,9.508 -2.578,18.871 -3.889,28.472 H 92.904084 c 1.638,-12.649 3.2,-25.137 4.886,-37.609 1.307,-9.686 2.2,-19.474 4.265996,-29 4.111,-18.912 21.711,-33.92 40.9,-35.722 24.038,-2.257 41.808,16.4 38.639,40.569 -3.388,25.84 -30.548,44.926 -55.161,38.542 -4.297,-1.114 -8.299,-3.352 -12.874,-5.252 z m 50.977,-36.667 a 19.708,19.708 0 0 0 -19.885,-20.156 c -13.747,-0.2 -26.581,12.4 -26.561,26.085 0.017,11.477 8.854,20.144 20.473,20.079 13.823,-0.077 25.986,-12.257 25.973,-26.008 z m -59.964,-48.475 -16.372995,12.158 c -2.29,-2.649 -4.112,-5.292 -6.453,-7.347 -4.192,-3.68 -8.315,-4.144 -13.154,-1.338 -4.816,2.793 -6.677,7.646 -3.1,11.927 5.109,6.12 10.561,11.978 16.142,17.679 13.799999,14.094 16.059999,27.407 6.812,41.677 -9.481,14.628 -28.925,21.476 -44.852,15.7 -9.385,-3.406 -13.985,-10.9 -16.865,-20.313 l 18.036,-9.674 c 1.336,2.5 2.367,4.8 3.729,6.894 4.8,7.38 13.659,8.726 20.856,3.274 6.262,-4.743 6.478,-11.321 0.279,-18.319 -5.592,-6.313 -11.8,-12.1 -17.124,-18.626 -17.759,-19.179 -4.727,-44.504 18.821,-49.615 14.549,-2.739 25.090999,2.203 33.245995,15.923 z m 160.626,89.492 h -17.038 c 1.308,-10.127 2.646,-19.933 3.805,-29.759 a 66.856,66.856 0 0 0 0.558,-10.8 c -0.76,-16.879 -14.221,-25.086 -29.847,-18.327 -15.291,6.615 -21.32,25.8 -11.6,36.9 6.533,7.462 17.3,9.181 26.887,4.159 2.371,-1.241 4.527,-2.891 7.432,-4.774 -0.855,6.907 -1.652,13.354 -2.444,19.753 -20.772,12.11 -47.516,0.8 -52.567,-19.931 -4.322,-16.381 0.985,-30.428 12.757,-41.923 11.748,-11.473 25.877,-16.531 42.259,-12.093 15.114,4.094 25.5,17.231 24.7,32.754 -0.747,14.662 -3.185,29.241 -4.902,44.041 z m 126.928,0.137 h -22.758 l -28.079,-42.367 c -2,14.769 -3.853,28.43 -5.719,42.206 h -18.844 c 3.967,-30.152 7.888,-59.944 11.8,-89.707 l 20.623,-13.286 c -1.986,15.358 -3.875,29.97 -5.99,46.324 l 31.836,-35.033 c 1.163,6.617 2.166,12.326 3.221,18.329 l -22.009,23.19 c 11.828,16.575 23.593,33.071 35.919,50.344 z m -101.1,-0.162 h -17.311 c 1.851,-14.24 3.665,-28.2 5.48,-42.159 0.582,-4.471 0.952,-8.982 1.793,-13.4 2.406,-12.655 12.358,-20.8 25.191,-20.835 3.6,-0.01 7.192,0 11.563,0 -0.387,3.184 -0.715,5.927 -1.055,8.67 -0.351,2.828 -0.712,5.656 -1.133,8.994 -3.259,0 -6.391,0.1 -9.514,-0.023 -5.067,-0.2 -7.459,2.517 -8.08,7.179 q -2.974,22.347 -5.891,44.7 c -0.292,2.21 -0.666,4.41 -1.043,6.874 z"
     id="path5114" />
</svg>
