<?xml version="1.0" encoding="UTF-8" standalone="no"?>
<svg
   viewBox="0 0 224.10995 212.89345"
   version="1.1"
   id="svg3296"
   sodipodi:docname="teamLogo.svg"
   width="59.295757mm"
   height="56.32806mm"
   inkscape:version="1.1 (c68e22c387, 2021-05-23)"
   xmlns:inkscape="http://www.inkscape.org/namespaces/inkscape"
   xmlns:sodipodi="http://sodipodi.sourceforge.net/DTD/sodipodi-0.dtd"
   xmlns="http://www.w3.org/2000/svg"
   xmlns:svg="http://www.w3.org/2000/svg">
  <defs
     id="defs3300" />
  <sodipodi:namedview
     id="namedview3298"
     pagecolor="#ffffff"
     bordercolor="#666666"
     borderopacity="1.0"
     inkscape:pageshadow="2"
     inkscape:pageopacity="0.0"
     inkscape:pagecheckerboard="0"
     showgrid="false"
     inkscape:zoom="4.546875"
     inkscape:cx="69.388316"
     inkscape:cy="108.20619"
     inkscape:window-width="3840"
     inkscape:window-height="2066"
     inkscape:window-x="-11"
     inkscape:window-y="-11"
     inkscape:window-maximized="1"
     inkscape:current-layer="svg3296"
     units="mm"
     inkscape:document-units="mm" />
  <path
     fill="#161617"
     d="m 122.34069,112.87814 a 42.09509,42.09509 0 0 0 14.54504,-31.827996 42.779562,42.779562 0 0 0 -85.559118,0 42.09509,42.09509 0 0 0 14.545051,31.827996 68.447301,68.447301 0 0 0 -40.212789,62.28704 8.5559126,8.5559126 0 0 0 17.111824,0 51.335476,51.335476 0 0 1 102.670952,0 8.5559129,8.5559129 0 0 0 17.11182,0 68.447301,68.447301 0 0 0 -40.21278,-62.28704 z M 94.106169,106.71788 A 25.667737,25.667737 0 1 1 119.7739,81.050144 25.667737,25.667737 0 0 1 94.106169,106.71788 Z m 83.334581,2.73788 a 42.779562,42.779562 0 0 0 -31.9991,-71.185183 8.5559127,8.5559127 0 0 0 0,17.111825 25.667737,25.667737 0 0 1 25.66773,25.667742 25.667737,25.667737 0 0 1 -12.83387,22.159806 8.5559126,8.5559126 0 0 0 -4.27795,7.18697 8.5559126,8.5559126 0 0 0 3.85015,7.35809 l 3.33681,2.22453 1.11228,0.59891 a 59.891387,59.891387 0 0 1 34.22364,54.58673 8.5559139,8.5559139 0 0 0 17.11182,0 77.003213,77.003213 0 0 0 -36.19151,-65.70942 z"
     id="path3294"
     style="stroke-width:8.55591" />
</svg>
