<?xml version="1.0" encoding="UTF-8" standalone="no"?>
<svg
   width="291.82129"
   height="270.95529"
   viewBox="0 0 291.82128 270.95529"
   version="1.1"
   preserveAspectRatio="xMidYMid"
   id="svg6024"
   sodipodi:docname="visualBasicLogo.svg"
   inkscape:version="1.1 (c68e22c387, 2021-05-23)"
   xmlns:inkscape="http://www.inkscape.org/namespaces/inkscape"
   xmlns:sodipodi="http://sodipodi.sourceforge.net/DTD/sodipodi-0.dtd"
   xmlns="http://www.w3.org/2000/svg"
   xmlns:svg="http://www.w3.org/2000/svg">
  <defs
     id="defs6028" />
  <sodipodi:namedview
     id="namedview6026"
     pagecolor="#ffffff"
     bordercolor="#666666"
     borderopacity="1.0"
     inkscape:pageshadow="2"
     inkscape:pageopacity="0.0"
     inkscape:pagecheckerboard="0"
     showgrid="false"
     fit-margin-top="0"
     fit-margin-left="0"
     fit-margin-right="0"
     fit-margin-bottom="0"
     inkscape:zoom="3.3068182"
     inkscape:cx="96.769759"
     inkscape:cy="141.22337"
     inkscape:window-width="3840"
     inkscape:window-height="2066"
     inkscape:window-x="-11"
     inkscape:window-y="-11"
     inkscape:window-maximized="1"
     inkscape:current-layer="svg6024" />
  <g
     id="g6022"
     transform="translate(13.608248,9.0721653)">
    <path
       d="M 188.3701,263.64685 90.446024,168.6066 32.494151,212.7207 0.50894024,196.67531 0.53341833,67.211729 32.618072,51.07557 90.614311,95.223841 188.29922,0.09434263 255.4676,27.019219 l 0.023,209.805261 -67.12045,26.82237"
       fill="#ffffff"
       id="path6018" />
    <path
       d="M 238.47165,38.518311 192.23764,19.984829 91.975904,117.62231 30.770486,71.030821 17.528861,77.69039 l -0.02091,108.49708 13.128924,6.58563 61.151873,-46.55018 100.509582,97.55027 46.19423,-18.45953 -0.0209,-186.795349 z M 37.358661,157.39461 l -0.03366,-50.9236 28.328287,25.28995 -28.29463,25.63365 z m 90.630629,-25.65252 56.63516,-42.338425 0.0224,85.008315 -56.65759,-42.66989 z"
       fill="#68217a"
       id="path6020" />
  </g>
</svg>
